# xmcd
# Copyright (C) 1995-1998 Ti Kan
#
# Track frame offsets:
#       150
#       12473
#       28033
#
# Disc length: 585 seconds
#
# Revision: 1
# Processed by: cddbd v1.4PL0 Copyright (c) Steve Scherf et al.
# Submitted via: CD-Transfer v1.0
#
DISCID=1c024703
DTITLE=New Berne - New Berne
DYEAR=2003
DGENRE=
TTITLE0=Fine Fine Day
TTITLE1=M-Song
TTITLE2=Silent Island
EXTD=
EXTT0=
EXTT1=
EXTT2=
PLAYORDER=
